<svg width="32" height="32" xmlns="http://www.w3.org/2000/svg">
 <title/>

 <g>
  <title>background</title>
  <rect fill="none" id="canvas_background" height="402" width="582" y="-1" x="-1"/>
 </g>
 <g>
  <title>Layer 1</title>
  <path fill="#ffffff" id="svg_1" d="m25.69,2.9l-13.76,0a2.7,2.7 0 0 0 -2,-0.9a2.74,2.74 0 0 0 -2.75,2.74l0,8.11a0.94,0.94 0 0 0 1.87,0l0,-8.11a0.87,0.87 0 0 1 1.74,0l0,7.2a2.68,2.68 0 1 1 -5.35,0l0,-7.2a0.93,0.93 0 1 0 -1.86,0l0,7.2a4.52,4.52 0 0 0 4.05,4.49l0,10.83a2.74,2.74 0 0 0 2.74,2.74l15.32,0a2.74,2.74 0 0 0 2.73,-2.74l0,-21.62a2.74,2.74 0 0 0 -2.73,-2.74zm0.87,24.36a0.87,0.87 0 0 1 -0.87,0.87l-15.32,0a0.87,0.87 0 0 1 -0.87,-0.87l0,-11a4.51,4.51 0 0 0 3.05,-3.36l11.11,0a0.94,0.94 0 0 0 0,-1.87l-11,0l0,-6.26l13,0a0.87,0.87 0 0 1 0.87,0.87l0.03,21.62z"/>
  <path fill="#ffffff" id="svg_2" d="m23.66,15.52l-11.26,0a0.93,0.93 0 1 0 0,1.86l11.26,0a0.93,0.93 0 0 0 0,-1.86z"/>
  <path fill="#ffffff" id="svg_3" d="m23.66,20l-11.26,0a0.94,0.94 0 1 0 0,1.87l11.26,0a0.94,0.94 0 0 0 0,-1.87z"/>
 </g>
</svg>